<svg xmlns="http://www.w3.org/2000/svg" width="82" height="41" viewBox="0 0 82 41">
  <path id="groups_FILL0_wght400_GRAD0_opsz48_2_" data-name="groups_FILL0_wght400_GRAD0_opsz48 (2)" d="M0,53V48.473q0-3.331,3.587-5.381a18.442,18.442,0,0,1,9.225-2.05q1.11,0,2.05.043a14.064,14.064,0,0,1,1.879.214,13.908,13.908,0,0,0-1.367,6.15V53Zm20.5,0V47.448q0-5.552,5.68-8.969T41,35.063q9.225,0,14.863,3.417T61.5,47.448V53Zm46.125,0V47.448a16.324,16.324,0,0,0-.3-3.2,12.8,12.8,0,0,0-.982-2.947,14.064,14.064,0,0,1,1.879-.214q.94-.043,1.965-.043a18.346,18.346,0,0,1,9.31,2.05q3.5,2.05,3.5,5.381V53ZM41,40.188a25.778,25.778,0,0,0-11.1,2.05q-4.271,2.05-4.271,5.21v.427h30.75v-.512q0-3.075-4.228-5.125T41,40.188ZM12.813,38.479a5.761,5.761,0,0,1-4.228-1.751,5.98,5.98,0,0,1,0-8.456,5.761,5.761,0,0,1,4.228-1.751,5.979,5.979,0,0,1,4.228,10.207A5.761,5.761,0,0,1,12.813,38.479Zm56.375,0a5.979,5.979,0,0,1-4.228-10.207,5.979,5.979,0,0,1,8.456,8.456A5.761,5.761,0,0,1,69.188,38.479ZM41,32.5A10.207,10.207,0,0,1,30.75,22.25a9.845,9.845,0,0,1,2.99-7.3A9.958,9.958,0,0,1,41,12,10.067,10.067,0,0,1,51.25,22.25,9.958,9.958,0,0,1,48.3,29.51,9.845,9.845,0,0,1,41,32.5Zm0-15.375a5.017,5.017,0,0,0-3.63,1.452,4.9,4.9,0,0,0-1.495,3.673,5.164,5.164,0,0,0,8.8,3.63,5.017,5.017,0,0,0,1.452-3.63A4.967,4.967,0,0,0,41,17.125ZM41,47.875ZM41,22.25Z" transform="translate(0 -12)" fill="#fff"/>
</svg>
