<svg xmlns="http://www.w3.org/2000/svg" width="33.424" height="31.134" viewBox="0 0 33.424 31.134">
  <g id="profile-users-group-silhouette-svgrepo-com" transform="translate(0 -1.145)">
    <path id="Path_6870" data-name="Path 6870" d="M33.424,13.374v7.97a1.637,1.637,0,0,1-1.637,1.638H25.416v6.4a2.9,2.9,0,0,1-2.9,2.9H10.908a2.9,2.9,0,0,1-2.9-2.9v-6.4H1.637A1.638,1.638,0,0,1,0,21.344v-7.97a1.637,1.637,0,0,1,1.637-1.636H2.992a3.983,3.983,0,1,1,3.828,0H8.174A1.638,1.638,0,0,1,9.81,13.374V14.6a2.872,2.872,0,0,1,1.1-.219h2.4a7.072,7.072,0,1,1,6.8,0h2.4a2.876,2.876,0,0,1,1.1.219V13.374a1.636,1.636,0,0,1,1.635-1.636H26.6a3.983,3.983,0,1,1,3.828,0h1.354A1.637,1.637,0,0,1,33.424,13.374Z" fill="#18b587"/>
  </g>
</svg>
