<svg xmlns="http://www.w3.org/2000/svg" width="19.816" height="19.816" viewBox="0 0 19.816 19.816"><defs><style>.a{fill:#fff;}</style></defs><g transform="translate(-24 -24)"><path class="a" d="M145.656,39.416a1.025,1.025,0,0,0,1.45,0l3.865-3.865a1.025,1.025,0,1,0-1.45-1.45l-2.116,2.116V25.025a1.025,1.025,0,1,0-2.05,0V36.217L143.24,34.1a1.025,1.025,0,0,0-1.45,1.45Z" transform="translate(-112.473)"/><path class="a" d="M42.791,232a1.025,1.025,0,0,0-1.025,1.025v7.858H26.05v-7.858a1.025,1.025,0,0,0-2.05,0v8.2a1.708,1.708,0,0,0,1.708,1.708h16.4a1.708,1.708,0,0,0,1.708-1.708v-8.2A1.025,1.025,0,0,0,42.791,232Z" transform="translate(0 -199.117)"/></g></svg>