<svg xmlns="http://www.w3.org/2000/svg" width="332.005" height="313.361" viewBox="0 0 332.005 313.361">
  <g id="Monster_404_Error-amico" data-name="Monster 404 Error-amico" transform="translate(-15.451 -42.547)">
    <g id="freepik--Floor--inject-90" transform="translate(18.451 164.015)">
      <path id="freepik--floor--inject-90-2" data-name="freepik--floor--inject-90" d="M301.84,238.436c-64.83-37.272-169.94-37.272-234.769,0s-64.822,97.711,0,134.983,169.933,37.279,234.762,0S366.662,275.715,301.84,238.436Z" transform="translate(-21.451 -209.483)" fill="#f5f5f5"/>
    </g>
    <g id="freepik--Shadows--inject-90" transform="translate(119.392 246.572)">
      <ellipse id="freepik--Shadow--inject-90" cx="45.893" cy="26.502" rx="45.893" ry="26.502" transform="translate(0)" fill="#e0e0e0"/>
    </g>
    <g id="freepik--Clouds--inject-90" transform="translate(252.923 42.547)">
      <g id="freepik--clouds--inject-90-2" data-name="freepik--clouds--inject-90">
        <path id="Path_6787" data-name="Path 6787" d="M420.016,73.8l-6.842-3.949a6.2,6.2,0,0,0,.058-.839V67.026a12.238,12.238,0,0,0-5.533-9.584,4.34,4.34,0,0,0-3.3-.636c-.5-5.02-3.985-10.69-8.21-13.128-4.571-2.64-8.282-.5-8.282,4.774v2.973a14.408,14.408,0,0,0,.723,4.246l-5.685-3.284c-1.693-.984-3.067-.188-3.067,1.772a6.806,6.806,0,0,0,3.045,5.352l37.091,21.41c1.693.984,3.067.188,3.067-1.772a6.806,6.806,0,0,0-3.067-5.352Z" transform="translate(-352.93 -42.547)" fill="#ebebeb"/>
        <path id="Path_6788" data-name="Path 6788" d="M368.21,88.274l-4.34-2.517a4.143,4.143,0,0,0,0-.535V83.963a7.8,7.8,0,0,0-3.522-6.112,2.785,2.785,0,0,0-2.1-.405,11.8,11.8,0,0,0-5.229-8.361c-2.893-1.678-5.273-.318-5.273,3.045v1.888a9.013,9.013,0,0,0,.448,2.705l-3.617-2.09c-1.078-.622-1.953-.116-1.953,1.128a4.34,4.34,0,0,0,1.953,3.385L368.21,92.795c1.078.622,1.953.116,1.953-1.136a4.34,4.34,0,0,0-1.953-3.385Z" transform="translate(-342.62 -49.691)" fill="#ebebeb"/>
      </g>
    </g>
    <g id="freepik--Plant--inject-90" transform="translate(270.998 161.958)">
      <g id="freepik--Plants--inject-90">
        <path id="Path_6789" data-name="Path 6789" d="M372.1,274.986c-2.336-10.712-6.083-21.214-3.761-37.612,2.112-14.857,9.916-28.129,21.034-29.655,7.493-1,14.039,7.356,6.7,18.083-1.222,1.787-17.106,17.359-14.466,38.82L380.13,278.9Z" transform="translate(-367.609 -207.638)" fill="#b7f5dd"/>
        <g id="Group_1719" data-name="Group 1719" opacity="0.2">
          <path id="Path_6790" data-name="Path 6790" d="M372.1,274.986c-2.336-10.712-6.083-21.214-3.761-37.612,2.112-14.857,9.916-28.129,21.034-29.655,7.493-1,14.039,7.356,6.7,18.083-1.222,1.787-17.106,17.359-14.466,38.82L380.13,278.9Z" transform="translate(-367.609 -207.638)"/>
        </g>
        <path id="Path_6791" data-name="Path 6791" d="M378.374,275.332a.485.485,0,0,0,.275-.514c-4.34-27.485,1.193-48.006,14.466-59.311a.485.485,0,0,0,.058-.68.492.492,0,0,0-.723-.058c-13.439,11.428-19.16,32.346-14.792,60.171a.477.477,0,0,0,.55.405Z" transform="translate(-369.99 -209.575)" fill="#fff"/>
        <path id="Path_6792" data-name="Path 6792" d="M388.671,293.846c-.051-4.166,2.249-13.251,7.7-21.171,6.871-10,17.591-13.265,18.683-18.5,1.316-6.293-5.273-9.888-13.8-6.835-10.264,3.674-22.379,18.451-18.177,43.362Z" transform="translate(-371.652 -218.317)" fill="#455a64"/>
        <path id="Path_6793" data-name="Path 6793" d="M386.99,291.4a.513.513,0,0,0,.325-.456c1.157-22.111,14.285-33.691,21.07-36.722a.521.521,0,0,0,.26-.687.506.506,0,0,0-.687-.26c-7.5,3.349-20.5,15.045-21.7,37.612a.521.521,0,0,0,.5.542A.456.456,0,0,0,386.99,291.4Z" transform="translate(-372.77 -220.251)" fill="#fff"/>
      </g>
    </g>
    <g id="freepik--Character--inject-90" transform="translate(97.573 99.869)">
      <g id="freepik--Monster--inject-90" transform="translate(0 0)">
        <path id="Path_6827" data-name="Path 6827" d="M151.053,274.352c-3.052-.123-4.4.181-3.928,3.407s.615,5.714.615,5.714,5.432.159,7.956-1.251S155.638,274.532,151.053,274.352Z" transform="translate(-68.42 -132.083)" fill="#b7f5dd"/>
        <path id="Path_6828" data-name="Path 6828" d="M151.053,274.352c-3.052-.123-4.4.181-3.928,3.407s.615,5.714.615,5.714,5.432.159,7.956-1.251S155.638,274.532,151.053,274.352Z" transform="translate(-68.42 -132.083)" opacity="0.5"/>
        <path id="Path_6829" data-name="Path 6829" d="M152.084,275.471a3.3,3.3,0,0,1-.593-.058,3.081,3.081,0,0,1-2.423-3.617c.788-4.007,1.57-7.1,2.264-9.83a78.41,78.41,0,0,0,2.278-11.573,29.655,29.655,0,0,0-3.747-17.468,3.07,3.07,0,0,1,5.28-3.132,35.651,35.651,0,0,1,4.571,21.265,82.563,82.563,0,0,1-2.43,12.4c-.665,2.655-1.447,5.663-2.17,9.511A3.074,3.074,0,0,1,152.084,275.471Z" transform="translate(-68.967 -119.344)" fill="#455a64"/>
        <path id="Path_6830" data-name="Path 6830" d="M143.059,299.26a3.827,3.827,0,0,0,0,1.8c.427.8,2.792,1.772,4.036,2.286a7.233,7.233,0,0,1,3.92,3.616,12.47,12.47,0,0,0,6.748,5.331,19.847,19.847,0,0,0,11.79.427c4.839-1.208,5.063-4.123,5.063-4.123s.072-2.734-1.172-3.081S143.059,299.26,143.059,299.26Z" transform="translate(-67.291 -138.981)" fill="#455a64"/>
        <path id="Path_6831" data-name="Path 6831" d="M145.009,282.068a19.361,19.361,0,0,1-.586,2.546c-.723,2.293-1.844,4.658-1.367,7.609.8,1.447,2.459,1.953,3.7,2.5a9.229,9.229,0,0,1,4.072,2.683c2.17,2.6,4.2,5.88,10.7,6.727s11.226-1.519,12.3-3.428-.13-3.551-4.39-5.49c-2.17-.991-7.1-5.063-7.66-5.584a10.727,10.727,0,0,1-1.389-1.743,10.568,10.568,0,0,1-1.736-4.34,15.189,15.189,0,0,1,.239-4.94c.072-.376.26-.767.1-1.107-.412-.911-1.837-.673-2.626-.608a26.224,26.224,0,0,0-3.5.6,2.018,2.018,0,0,0-1.042.441,2.112,2.112,0,0,0-.456,1c-.152.542-.311,1.085-.485,1.613a1.49,1.49,0,0,1-.636.948.948.948,0,0,1-1.056-.26,1.729,1.729,0,0,1-.4-1.056,10.254,10.254,0,0,1,.043-1.157,1.816,1.816,0,0,0-.21-1.07c-.427-.673-1.5-.781-1.779-1.526a1.15,1.15,0,0,1,.325-1.165,2.047,2.047,0,0,1,1.165-.477,9.174,9.174,0,0,1,1.266,0l.231-.9a5.548,5.548,0,0,0-2.958.376,2.669,2.669,0,0,0-1.353,1.273,3.855,3.855,0,0,0-.109,2.221A13.858,13.858,0,0,1,145.009,282.068Z" transform="translate(-67.288 -131.944)" fill="#b7f5dd"/>
        <path id="Path_6832" data-name="Path 6832" d="M145.009,282.068a19.361,19.361,0,0,1-.586,2.546c-.723,2.293-1.844,4.658-1.367,7.609.8,1.447,2.459,1.953,3.7,2.5a9.229,9.229,0,0,1,4.072,2.683c2.17,2.6,4.2,5.88,10.7,6.727s11.226-1.519,12.3-3.428-.13-3.551-4.39-5.49c-2.17-.991-7.1-5.063-7.66-5.584a10.727,10.727,0,0,1-1.389-1.743,10.568,10.568,0,0,1-1.736-4.34,15.189,15.189,0,0,1,.239-4.94c.072-.376.26-.767.1-1.107-.412-.911-1.837-.673-2.626-.608a26.224,26.224,0,0,0-3.5.6,2.018,2.018,0,0,0-1.042.441,2.112,2.112,0,0,0-.456,1c-.152.542-.311,1.085-.485,1.613a1.49,1.49,0,0,1-.636.948.948.948,0,0,1-1.056-.26,1.729,1.729,0,0,1-.4-1.056,10.254,10.254,0,0,1,.043-1.157,1.816,1.816,0,0,0-.21-1.07c-.427-.673-1.5-.781-1.779-1.526a1.15,1.15,0,0,1,.325-1.165,2.047,2.047,0,0,1,1.165-.477,9.174,9.174,0,0,1,1.266,0l.231-.9a5.548,5.548,0,0,0-2.958.376,2.669,2.669,0,0,0-1.353,1.273,3.855,3.855,0,0,0-.109,2.221A13.858,13.858,0,0,1,145.009,282.068Z" transform="translate(-67.288 -131.944)" opacity="0.35"/>
        <path id="Path_6833" data-name="Path 6833" d="M162.68,310.707a8.434,8.434,0,0,1,4.34-7.407c4.665-2.792,7.71-1.4,9.265-.434,1.844,1.15,4.542,3.617,3.139,5.656-1.512,2.17-4.094,3.349-9.02,3.74A12.532,12.532,0,0,1,162.68,310.707Z" transform="translate(-72.75 -139.643)" fill="#fafafa"/>
        <path id="Path_6834" data-name="Path 6834" d="M153.592,289.74a.535.535,0,0,0,.463-.181c.644-.687,4.557-3.052,7.515-1.837.072-.108.2-.832-.159-1.056a9.215,9.215,0,0,0-8.188,2.17.521.521,0,0,0,.051.723A.6.6,0,0,0,153.592,289.74Z" transform="translate(-70.099 -135.436)" fill="#fafafa"/>
        <path id="Path_6835" data-name="Path 6835" d="M163.432,292.04a1.512,1.512,0,0,0-.477-1.107,10.219,10.219,0,0,0-7.5,2.445.521.521,0,0,0,.058.723.535.535,0,0,0,.318.13.55.55,0,0,0,.463-.174C156.915,293.414,160.771,291.179,163.432,292.04Z" transform="translate(-70.717 -136.658)" fill="#fafafa"/>
        <path id="Path_6836" data-name="Path 6836" d="M170.189,299.027c-.051-.347-.723-.868-1.295-1.013a9.566,9.566,0,0,0-7.486,3.522.514.514,0,0,0,.174.723.579.579,0,0,0,.34.08.571.571,0,0,0,.427-.246C162.9,301.262,166.66,298.086,170.189,299.027Z" transform="translate(-72.375 -138.632)" fill="#fafafa"/>
        <path id="Path_6837" data-name="Path 6837" d="M158.469,298.482a.6.6,0,0,0,.441-.224c.542-.759,3.812-3.617,7.175-2.756,0-.3-.593-.882-.9-.962-3.334-.3-6.56,2.221-7.233,3.11a.521.521,0,0,0,.137.723A.593.593,0,0,0,158.469,298.482Z" transform="translate(-71.418 -137.668)" fill="#fafafa"/>
        <path id="Path_6838" data-name="Path 6838" d="M104.086,289.083c-3.038-.246-4.4,0-4.065,3.24s.376,5.736.376,5.736,5.418.383,8-.919S108.671,289.459,104.086,289.083Z" transform="translate(-55.398 -136.146)" fill="#b7f5dd"/>
        <path id="Path_6839" data-name="Path 6839" d="M104.086,289.083c-3.038-.246-4.4,0-4.065,3.24s.376,5.736.376,5.736,5.418.383,8-.919S108.671,289.459,104.086,289.083Z" transform="translate(-55.398 -136.146)" opacity="0.5"/>
        <path id="Path_6840" data-name="Path 6840" d="M104.4,290.331a3.334,3.334,0,0,1-.593-.08,3.067,3.067,0,0,1-2.264-3.711c.955-3.971,1.866-7.023,2.669-9.728a77.3,77.3,0,0,0,2.763-11.45,29.656,29.656,0,0,0-3.009-17.605,3.074,3.074,0,0,1,5.41-2.893,35.731,35.731,0,0,1,3.674,21.4,82.392,82.392,0,0,1-2.951,12.3c-.781,2.626-1.664,5.6-2.582,9.4A3.074,3.074,0,0,1,104.4,290.331Z" transform="translate(-55.81 -123.528)" fill="#455a64"/>
        <path id="Path_6841" data-name="Path 6841" d="M95.078,313.59a3.761,3.761,0,0,0-.094,1.8c.391.81,2.705,1.888,3.928,2.452a7.233,7.233,0,0,1,3.761,3.8,12.549,12.549,0,0,0,6.51,5.606,19.847,19.847,0,0,0,11.761.919c4.882-1,5.208-3.906,5.208-3.906s.188-2.727-1.042-3.125S95.078,313.59,95.078,313.59Z" transform="translate(-54 -142.946)" fill="#455a64"/>
        <path id="Path_6842" data-name="Path 6842" d="M97.475,296.582a20.252,20.252,0,0,1-.723,2.517c-.8,2.264-2.04,4.571-1.685,7.544.723,1.447,2.365,2.054,3.617,2.662a9.445,9.445,0,0,1,3.956,2.85c2.04,2.683,3.949,6.054,10.408,7.168s11.284-1.049,12.426-2.893,0-3.551-4.159-5.671c-2.119-1.078-6.879-5.338-7.421-5.895A12.079,12.079,0,0,1,111,298.658a15.334,15.334,0,0,1,.441-4.926c.094-.369.3-.723.152-1.107-.376-.926-1.808-.723-2.6-.723a25.1,25.1,0,0,0-3.522.456,2.032,2.032,0,0,0-1.063.4,2.17,2.17,0,0,0-.5.976c-.166.535-.347,1.07-.55,1.6a1.483,1.483,0,0,1-.673.911.947.947,0,0,1-1.042-.3,1.693,1.693,0,0,1-.354-1.078,10.257,10.257,0,0,1,.094-1.157,1.881,1.881,0,0,0-.166-1.078c-.4-.687-1.447-.839-1.714-1.6a1.107,1.107,0,0,1,.376-1.143,1.909,1.909,0,0,1,1.179-.427,9.481,9.481,0,0,1,1.273,0l.26-.882a5.591,5.591,0,0,0-2.973.246,2.676,2.676,0,0,0-1.4,1.222,3.891,3.891,0,0,0-.2,2.206A12.724,12.724,0,0,1,97.475,296.582Z" transform="translate(-54.024 -136)" fill="#b7f5dd"/>
        <path id="Path_6843" data-name="Path 6843" d="M97.475,296.582a20.252,20.252,0,0,1-.723,2.517c-.8,2.264-2.04,4.571-1.685,7.544.723,1.447,2.365,2.054,3.617,2.662a9.445,9.445,0,0,1,3.956,2.85c2.04,2.683,3.949,6.054,10.408,7.168s11.284-1.049,12.426-2.893,0-3.551-4.159-5.671c-2.119-1.078-6.879-5.338-7.421-5.895A12.079,12.079,0,0,1,111,298.658a15.334,15.334,0,0,1,.441-4.926c.094-.369.3-.723.152-1.107-.376-.926-1.808-.723-2.6-.723a25.1,25.1,0,0,0-3.522.456,2.032,2.032,0,0,0-1.063.4,2.17,2.17,0,0,0-.5.976c-.166.535-.347,1.07-.55,1.6a1.483,1.483,0,0,1-.673.911.947.947,0,0,1-1.042-.3,1.693,1.693,0,0,1-.354-1.078,10.257,10.257,0,0,1,.094-1.157,1.881,1.881,0,0,0-.166-1.078c-.4-.687-1.447-.839-1.714-1.6a1.107,1.107,0,0,1,.376-1.143,1.909,1.909,0,0,1,1.179-.427,9.481,9.481,0,0,1,1.273,0l.26-.882a5.591,5.591,0,0,0-2.973.246,2.676,2.676,0,0,0-1.4,1.222,3.891,3.891,0,0,0-.2,2.206A12.724,12.724,0,0,1,97.475,296.582Z" transform="translate(-54.024 -136)" opacity="0.35"/>
        <path id="Path_6844" data-name="Path 6844" d="M114.07,325.994a8.434,8.434,0,0,1,4.644-7.233c4.781-2.6,7.768-1.078,9.28-.043,1.794,1.222,4.383,3.812,2.893,5.786-1.606,2.119-4.231,3.175-9.171,3.356A12.556,12.556,0,0,1,114.07,325.994Z" transform="translate(-59.299 -143.98)" fill="#fafafa"/>
        <path id="Path_6845" data-name="Path 6845" d="M105.973,304.576a.55.55,0,0,0,.47-.152c.665-.665,4.673-2.893,7.58-1.519.08-.116.231-.825-.116-1.063a9.215,9.215,0,0,0-8.275,1.837.514.514,0,0,0,0,.723.557.557,0,0,0,.34.174Z" transform="translate(-56.924 -139.61)" fill="#fafafa"/>
        <path id="Path_6846" data-name="Path 6846" d="M115.7,307.343a1.447,1.447,0,0,0-.434-1.128,10.168,10.168,0,0,0-7.587,2.127.514.514,0,0,0,0,.723.571.571,0,0,0,.781,0C109.137,308.435,113.079,306.366,115.7,307.343Z" transform="translate(-57.491 -140.872)" fill="#fafafa"/>
        <path id="Path_6847" data-name="Path 6847" d="M122.148,314.577c0-.347-.723-.9-1.251-1.063a9.581,9.581,0,0,0-7.631,3.2.514.514,0,0,0,.152.723.557.557,0,0,0,.333.094.586.586,0,0,0,.441-.231C114.771,316.53,118.662,313.514,122.148,314.577Z" transform="translate(-59.052 -142.913)" fill="#fafafa"/>
        <path id="Path_6848" data-name="Path 6848" d="M110.475,313.579a.593.593,0,0,0,.456-.21c.579-.723,3.956-3.457,7.284-2.452.036-.3-.557-.9-.853-1-3.32-.441-6.647,1.946-7.32,2.806a.514.514,0,0,0,.108.723A.549.549,0,0,0,110.475,313.579Z" transform="translate(-58.156 -141.916)" fill="#fafafa"/>
        <path id="Path_6849" data-name="Path 6849" d="M203.243,202.76c-2.937,0-6.6-1.034-10.661-3.8a2.193,2.193,0,1,1,2.481-3.617c5.468,3.732,9.4,3.3,10.85,2.452a3.1,3.1,0,0,0,1.193-2.235c.347-2.17-.362-5.656-3.385-9.07-6.394-7.233-14.415-10.929-26.827-12.412a2.185,2.185,0,0,1,.521-4.34c13.4,1.591,22.516,5.866,29.59,13.858,3.428,3.87,5.063,8.607,4.441,12.672a7.233,7.233,0,0,1-3.32,5.324,9.562,9.562,0,0,1-4.882,1.172Z" transform="translate(-76.15 -103.137)" fill="#455a64"/>
        <path id="Path_6850" data-name="Path 6850" d="M167.833,121c3.32-3.132,6.249-12.332,4.738-22s-10.437-18.7-14-20.657-6.061.571-5.063,4.181c1.316,4.9,2.958,15.913-6.191,20.78a32.122,32.122,0,0,0,6.04,12.933C158.076,121.935,167.833,121,167.833,121Z" transform="translate(-68.5 -77.667)" fill="#b7f5dd"/>
        <path id="Path_6851" data-name="Path 6851" d="M167.833,121c3.32-3.132,6.249-12.332,4.738-22s-10.437-18.7-14-20.657-6.061.571-5.063,4.181c1.316,4.9,2.958,15.913-6.191,20.78a32.122,32.122,0,0,0,6.04,12.933C158.076,121.935,167.833,121,167.833,121Z" transform="translate(-68.5 -77.667)" fill="#fff" opacity="0.75"/>
        <path id="Path_6852" data-name="Path 6852" d="M157.505,85.221a7.892,7.892,0,0,1-2.344-.347.448.448,0,0,1-.289-.557.441.441,0,0,1,.557-.282c2.893.919,6.763-.152,7.739-3.161a.437.437,0,1,1,.832.268C163.125,83.854,160.268,85.221,157.505,85.221Z" transform="translate(-70.584 -78.47)" fill="#b7f5dd"/>
        <path id="Path_6853" data-name="Path 6853" d="M161.144,93.186a9.555,9.555,0,0,1-4.832-1.345.441.441,0,0,1,.434-.767,8.506,8.506,0,0,0,6.51.976c3.993-.962,4.846-3.3,5.027-4.26a.441.441,0,1,1,.861.159c-.217,1.128-1.193,3.87-5.685,4.955A10.126,10.126,0,0,1,161.144,93.186Z" transform="translate(-70.932 -80.353)" fill="#b7f5dd"/>
        <path id="Path_6854" data-name="Path 6854" d="M165.554,104.06h0a13.316,13.316,0,0,1-9.794-4.123.441.441,0,0,1,0-.622.434.434,0,0,1,.622,0,12.4,12.4,0,0,0,9.157,3.841h0c5.642,0,7.313-2.647,8.029-3.776a.434.434,0,0,1,.608-.137.441.441,0,0,1,.137.608C173.6,101.015,171.674,104.06,165.554,104.06Z" transform="translate(-70.8 -83.617)" fill="#b7f5dd"/>
        <path id="Path_6855" data-name="Path 6855" d="M167.15,114.844a16.137,16.137,0,0,1-5.121-.832,15,15,0,0,1-8.911-7.153.441.441,0,0,1,.774-.412,13.94,13.94,0,0,0,8.419,6.734c5.5,1.852,10.748,0,12.217-1.345a.441.441,0,0,1,.593.644C174,113.542,170.919,114.844,167.15,114.844Z" transform="translate(-70.095 -85.577)" fill="#b7f5dd"/>
        <path id="Path_6856" data-name="Path 6856" d="M154.448,113.16c7.877-8.991,4.832-23.146,2.893-27.225-2.727-5.714-1.57-8.224.817-7.775-3.334-1.548-5.613.911-4.687,4.34,1.316,4.9,2.958,15.913-6.191,20.78a32.787,32.787,0,0,0,5.193,11.79,17.173,17.173,0,0,0,1.975-1.91Z" transform="translate(-68.489 -77.672)" opacity="0.1"/>
        <path id="Path_6857" data-name="Path 6857" d="M151.881,178.244c-2.676-6.51-4.007-24.527-3.457-36.36a4.768,4.768,0,0,0,3.1-5.982c-.8-2.843-1.57-3.219-3.971-6.285-1.707-2.17-2.893-5.063-4.427-7.436-5.266-8.058-11.956-13.432-21.808-15.754a3.045,3.045,0,0,1-2.221-3.8c.629-2.17,1.165-5.005.506-7.088-1.222-3.848-3.653-4.239-5.258-3.522s-1.729,2.307-1.244,4.89-.275,3.038-1.136,2.763-1.5-4.976-7.515-7.182-10.068.723-9.967,3.168c.108,2.712,2.076,2.893,6.249,3.371a8.289,8.289,0,0,1,4.853,2.17,3.06,3.06,0,0,1-1.584,5.107c-15.283,3.392-27.117,16.13-30.509,33.315a74.811,74.811,0,0,0-1.07,9.338h0a8.072,8.072,0,0,0-4.817-3.689c-2.951-.723-4.123.687-4.079,2s1.678,1.946,3.334,2.633c2.655,1.1,3.089,2.119,3.089,2.119a8.268,8.268,0,0,0-4.108.412c-1.815.8-2.293,2.763-.535,3.515.976.412,2.474-.333,4.014-.723.969-.224,2.763-.586,2.893.579h0c0,2.727,0,5.569.065,8.5.224,8.253,1.671,13.9.354,21.388-1.005,5.671-5.967,10.126-.984,14.835a7.71,7.71,0,0,0,6.871,1.9,3.132,3.132,0,0,1,3.617,2.4c.557,2.351,2.257,5.215,7.059,6.51,4.427,1.172,7.233-.174,8.991-1.815a2.987,2.987,0,0,1,4.34.116c1.844,2.206,5.266,4.571,11.45,4.542s9.294-2.712,10.85-5a3.067,3.067,0,0,1,4.087-1.005,10.576,10.576,0,0,0,10.85,0c3.494-1.866,4.4-5.215,4.484-7.956a3.016,3.016,0,0,1,3.428-2.893,6.973,6.973,0,0,0,7.3-3.1C158.282,189.194,154.282,184.11,151.881,178.244Z" transform="translate(-45.315 -81.55)" fill="#18b587"/>
        <g id="Group_1720" data-name="Group 1720" transform="translate(18.214 10.171)" opacity="0.1">
          <path id="Path_6858" data-name="Path 6858" d="M66.864,150.666c2.655,1.1,3.089,2.119,3.089,2.119a8.267,8.267,0,0,0-4.108.412c-1.815.8-2.293,2.763-.535,3.515.976.412,2.474-.333,4.014-.723.969-.224,2.763-.586,2.893.579h0c0,2.727,0,5.569.065,8.5.224,8.253,1.671,13.9.354,21.388-1.005,5.671-5.967,10.126-.984,14.835a7.284,7.284,0,0,0,3.682,1.9c-.152-.08-2.481-3.826.268-9.229,3.862-7.6,3.617-12.354,2.611-27.753-1.237-18.806,1.07-26.885,7.906-40.194,7.009-13.641,18.148-14.3,22.878-17.916,2.575-1.967,1.693-5.533-.557-7.8a11.487,11.487,0,0,0-6.582-2.857c-3.8-.391-7.342-1.056-6.625-2.958a2.843,2.843,0,0,0-.723,1.9c.108,2.712,2.076,2.893,6.249,3.371a8.289,8.289,0,0,1,4.853,2.17,3.06,3.06,0,0,1-1.584,5.107C88.722,110.458,76.889,123.2,73.5,140.381a74.811,74.811,0,0,0-1.07,9.338h0a8.072,8.072,0,0,0-4.817-3.689c-2.951-.723-4.123.687-4.079,2S65.208,149.979,66.864,150.666Z" transform="translate(-63.528 -92.49)"/>
          <path id="Path_6859" data-name="Path 6859" d="M92.346,247.243c-1.938-2.56-3.508-2.98-6.206-2.409h0a3.125,3.125,0,0,1,2.242,2.329c.557,2.351,2.257,5.215,7.059,6.51a9.582,9.582,0,0,0,7.168-.506C95.659,254.656,94.292,249.8,92.346,247.243Z" transform="translate(-69.785 -134.03)"/>
          <path id="Path_6860" data-name="Path 6860" d="M133.755,257.8c-3.421.448-6.625-.326-10.227-2.966-3.884-2.843-5.786-2.575-8.188-1.613h0a2.763,2.763,0,0,1,1.519.926c1.844,2.206,5.266,4.571,11.45,4.542a16.259,16.259,0,0,0,5.446-.89Z" transform="translate(-77.865 -136.23)"/>
          <path id="Path_6861" data-name="Path 6861" d="M133.077,95.787c-.13-2.286,1.324-4.007,3.117-3.255a3.219,3.219,0,0,0-3.465-.514c-1.613.723-1.729,2.307-1.244,4.89s-.275,3.038-1.136,2.763a.911.911,0,0,1-.391-.405h0c.665,1.447,1.309,2.893,2.814,2.112S133.208,98.066,133.077,95.787Z" transform="translate(-81.91 -91.728)"/>
        </g>
        <path id="Path_6862" data-name="Path 6862" d="M114.15,165.41a4.694,4.694,0,0,0,4.7,3.486c3.87-.051,4.3-1.808,5.88-4.21s4.991-2.937,7.956-2.987a4.81,4.81,0,0,0,4.137-6.8,4.166,4.166,0,0,1-1.967,3.971c-2.372,1.548-5.526.152-8.629,1.635s-3.371,4.832-5.649,5.895A6.249,6.249,0,0,1,114.15,165.41Z" transform="translate(-59.322 -99.037)" opacity="0.2"/>
        <path id="Path_6863" data-name="Path 6863" d="M135.1,165.29a5.786,5.786,0,0,1-10.755,2.336c1.533-1.447,2.112-3.906,4.7-5.237,2.047-1.042,3.617-.564,5.316-.615a5.83,5.83,0,0,1,.738,3.515Z" transform="translate(-62.141 -100.921)" fill="#455a64"/>
        <path id="Path_6864" data-name="Path 6864" d="M117.561,165.78a5.786,5.786,0,0,1-5.685-3.486.441.441,0,0,1,.224-.579.434.434,0,0,1,.579.224c.665,1.5,2.17,3.233,5.649,2.929,1.946-.166,2.7-1.331,3.617-2.806a8.839,8.839,0,0,1,3.407-3.465,7.566,7.566,0,0,1,4.253-.723,6.307,6.307,0,0,0,4.528-1.049,3.436,3.436,0,0,0,1.57-2.893,5.063,5.063,0,0,0-1.4-3.617.441.441,0,0,1-.094-.615.427.427,0,0,1,.608-.094,5.873,5.873,0,0,1,1.765,4.34,4.34,4.34,0,0,1-1.953,3.617,7.168,7.168,0,0,1-5.063,1.2,6.69,6.69,0,0,0-3.812.6,7.956,7.956,0,0,0-3.067,3.154c-.955,1.447-1.946,3-4.34,3.2A3.394,3.394,0,0,1,117.561,165.78Z" transform="translate(-58.682 -97.548)" fill="#455a64"/>
        <path id="Path_6865" data-name="Path 6865" d="M135.9,165.173a1.591,1.591,0,1,1-.453-1.134A1.6,1.6,0,0,1,135.9,165.173Z" transform="translate(-64.454 -101.433)" fill="#f5f5f5"/>
        <path id="Path_6866" data-name="Path 6866" d="M174.173,158.553l-.383-.2a4.05,4.05,0,0,1-2.17-.81c-.774-.723-1.642-3.06-4.116-3.66s-3.862.6-6.611.723-3.667-1.779-4.217-3.371c-.3,2.7.47,4.506,2.423,5.3,2.17.882,6.1-.969,7.783,0s2.647,2.973,4.738,3.2a3.732,3.732,0,0,0,2.5-.5A5.5,5.5,0,0,0,174.173,158.553Z" transform="translate(-71.071 -98.024)" opacity="0.2"/>
        <path id="Path_6867" data-name="Path 6867" d="M173.208,158.518a5.562,5.562,0,0,1-10.922-1.982,5.4,5.4,0,0,1,.2-.962c2.04-.051,3.9-1.447,6.611-.723C171.472,155.487,171.638,157.375,173.208,158.518Z" transform="translate(-72.631 -98.966)" fill="#455a64"/>
        <path id="Path_6868" data-name="Path 6868" d="M173.961,157.92a5.62,5.62,0,0,1-1.772-.376,5.381,5.381,0,0,1-2.445-2.17,4.239,4.239,0,0,0-2.488-1.975,7.233,7.233,0,0,0-4.116.275c-1.512.427-3.074.868-4.933-.253a4.412,4.412,0,0,1-1.96-5.063.434.434,0,0,1,.557-.268.441.441,0,0,1,.268.564,3.573,3.573,0,0,0,1.584,4.014c1.541.926,2.792.571,4.246.166a7.956,7.956,0,0,1,4.593-.282,5.063,5.063,0,0,1,2.987,2.336,4.593,4.593,0,0,0,2.061,1.837,4.817,4.817,0,0,0,1.5.311.456.456,0,0,1,.456.419.434.434,0,0,1-.42.456Z" transform="translate(-70.918 -97.146)" fill="#455a64"/>
        <path id="Path_6869" data-name="Path 6869" d="M172.93,158.974a1.49,1.49,0,1,1-1.447-1.5,1.447,1.447,0,0,1,1.447,1.5Z" transform="translate(-74.761 -99.748)" fill="#f5f5f5"/>
        <path id="Path_6870" data-name="Path 6870" d="M142.871,176.116A34.375,34.375,0,0,0,125.7,193.476c-1.881,4.521-.854,8.275,1.664,9.128,4.976,1.678,10.553-6.076,16.1-8.781s10.061-.087,12.875-1.9c3.313-2.134,2.828-7.58,1.049-11.464C155.406,176.1,150.394,172.76,142.871,176.116Z" transform="translate(-62.25 -104.529)" fill="#455a64"/>
        <path id="Path_6871" data-name="Path 6871" d="M156.151,194.222c-2.756-9.584-11.754-12.571-20.882-11.124a33.424,33.424,0,0,0-9.569,12.578c-1.881,4.521-.853,8.275,1.664,9.128,4.976,1.678,10.553-6.076,16.1-8.781C148.831,193.405,153.323,195.814,156.151,194.222Z" transform="translate(-62.25 -106.744)" fill="#f28f8f"/>
        <path id="Path_6872" data-name="Path 6872" d="M150.253,194.723c-9.237-2.481-15.189,5.454-18.119,5.381s-4.34-2.626-.282-9.1,12.737-8.246,16.527-6.351a21.951,21.951,0,0,0-13.07-1.555,33.424,33.424,0,0,0-9.569,12.578c-1.881,4.513-.853,8.275,1.664,9.128,4.976,1.678,10.553-6.076,16.1-8.781a14.061,14.061,0,0,1,6.748-1.3Z" transform="translate(-62.261 -106.745)" opacity="0.1"/>
        <path id="Path_6873" data-name="Path 6873" d="M163.51,186.585c-1.779.774-1.758,3.139-3.226,8.166-.1.354-.2.723-.3,1.013,2.474.058,4.564.391,6.112-.608a4.731,4.731,0,0,0,.846-.723C167.3,190.636,165.39,185.768,163.51,186.585Z" transform="translate(-72.003 -107.779)" fill="#f5f5f5"/>
        <path id="Path_6874" data-name="Path 6874" d="M166.938,194.448a10.639,10.639,0,0,0,.036-1.36,3.653,3.653,0,0,1-2.069,1.374,8.947,8.947,0,0,1-2.857,0s.463-2.937.926-5.461c.3-1.693,1.316-2.43,2.126-1.844-.5-.557-1.042-.81-1.591-.571-1.779.774-1.758,3.139-3.226,8.166-.1.354-.2.723-.3,1.013,2.474.058,4.564.391,6.112-.608A4.729,4.729,0,0,0,166.938,194.448Z" transform="translate(-72.003 -107.78)" fill="#e0e0e0"/>
        <path id="Path_6875" data-name="Path 6875" d="M136.616,195.215c-1.787.774-1.758,3.139-3.226,8.166-.644,2.17-1.193,3.819-1.62,4.976,2.655-.506,5.439-2.893,8.267-5.186h0C140.435,199.374,138.511,194.391,136.616,195.215Z" transform="translate(-64.197 -110.167)" fill="#f5f5f5"/>
        <path id="Path_6876" data-name="Path 6876" d="M140.029,203.168a10.93,10.93,0,0,0,0-1.888c-2.814,1.823-4.506,3.776-4.955,3.53s-.058-2.221.13-4.39c.231-2.626.557-5.345,2.307-5.157a1.092,1.092,0,0,0-.926-.043c-1.787.774-1.758,3.139-3.226,8.166-.644,2.17-1.193,3.819-1.62,4.976,2.655-.506,5.439-2.893,8.267-5.186Z" transform="translate(-64.189 -110.17)" fill="#e0e0e0"/>
        <path id="Path_6877" data-name="Path 6877" d="M52.909,227.321a2.372,2.372,0,0,1-.723-.116,2.17,2.17,0,0,1-1.382-2.777C56.7,207,65.255,199.64,77.219,193.405a2.193,2.193,0,0,1,2.025,3.891c-11.276,5.873-18.856,12.426-24.252,28.527A2.206,2.206,0,0,1,52.909,227.321Z" transform="translate(-41.761 -109.623)" fill="#455a64"/>
        <path id="Path_6878" data-name="Path 6878" d="M47.947,234.192c-.919,2.387-2.322,3.349-3.66,4.759s-2.785,2.264-4.181,4.463a12.453,12.453,0,0,0-1.635,7.674c.231.984,1.6.991,1.678.13.3-3.211.832-5.974,3.081-7.689a18.885,18.885,0,0,0-1.729,5.917c-.2,2.821.174,6.191,1.338,6.358s1.128-1.027.962-2.727-.318-6.184,1.946-9.4c0,0-.81,4.73,0,7.754s2.372,5.179,3.24,4.81.825-.948-.116-3.269a13.025,13.025,0,0,1-.506-6.025,7.11,7.11,0,0,1,1.967-4.73,3.949,3.949,0,0,1,1.671-1.07,2.459,2.459,0,0,1,2,.651,5.6,5.6,0,0,1,1.758,3.443c.2,1.519,2.712,1.656,1.779-2.611s-6.191-5.02-4.875-8.506Z" transform="translate(-38.347 -120.957)" fill="#455a64"/>
        <path id="Path_6879" data-name="Path 6879" d="M195.832,205.293l2-3.877c-3.11-1.62.448-6.387-1.353-10.372s-3.725-2.38-2.987-1.042a4.947,4.947,0,0,1,.644,3.812c-.3,1.063-.991,1.685-1.721,1.056s-1.2-2.7-3.884-4.976a9.482,9.482,0,0,0-5.786-2.474c-2.1,0-1.36,1.447-.354,1.859,4.34,1.736,4.875,2.705,5.96,4.123s.948,2.228.383,2.061-1.447-1.4-4.065-2.611-5.577-1.208-6.032-.651-.405,1.273.853,1.57a23.969,23.969,0,0,1,5.36,1.8c1.844,1.063,2.683,2.438,2.38,2.835s-1.881-.723-4.282-1.157-3.617-.441-4.629-.051c-.723.282-.47,1.765,1.729,1.873a14.466,14.466,0,0,1,6.307,2.047,21.1,21.1,0,0,0,3.66,2.126,55.483,55.483,0,0,0,5.815,2.047Z" transform="translate(-76.977 -108.035)" fill="#455a64"/>
        <path id="Path_6880" data-name="Path 6880" d="M93.109,123.327c2.539,1.331,6.611,8.26,1.62,15.631a14.7,14.7,0,0,1-15.3,6.546c-2.025-.984-12.629-5.584-13.15-20.252S74.752,105,77.037,103.675s6.756-1.685,6.2,3.334-1.085,9.475,2.56,12.7A19.5,19.5,0,0,0,93.109,123.327Z" transform="translate(-46.07 -84.628)" fill="#b7f5dd"/>
        <path id="Path_6881" data-name="Path 6881" d="M93.109,123.327c2.539,1.331,6.611,8.26,1.62,15.631a14.7,14.7,0,0,1-15.3,6.546c-2.025-.984-12.629-5.584-13.15-20.252S74.752,105,77.037,103.675s6.756-1.685,6.2,3.334-1.085,9.475,2.56,12.7A19.5,19.5,0,0,0,93.109,123.327Z" transform="translate(-46.07 -84.628)" fill="#fff" opacity="0.75"/>
        <path id="Path_6882" data-name="Path 6882" d="M76.573,149.738a10.564,10.564,0,0,1-1.063-.051.44.44,0,1,1,.094-.875,17.55,17.55,0,0,0,13.576-5.323c4.752-5.186,4.947-10.242,4.267-13.569a.434.434,0,0,1,.34-.514.441.441,0,0,1,.521.34c.723,3.522.521,8.875-4.484,14.336A18.555,18.555,0,0,1,76.573,149.738Z" transform="translate(-48.521 -91.98)" fill="#b7f5dd"/>
        <path id="Path_6883" data-name="Path 6883" d="M71.447,139.156a23.826,23.826,0,0,1-4.788-.463.437.437,0,0,1,.188-.853c.333.072,8.2,1.779,13.837-2,5.107-3.421,5.555-7.551,5.743-9.316a.441.441,0,0,1,.485-.391.427.427,0,0,1,.383.485,12.809,12.809,0,0,1-6.119,9.953A17.546,17.546,0,0,1,71.447,139.156Z" transform="translate(-46.086 -91.075)" fill="#b7f5dd"/>
        <path id="Path_6884" data-name="Path 6884" d="M73.356,126.268a13.518,13.518,0,0,1-7.508-2.018.434.434,0,1,1,.477-.723c1.447.955,4.687,2.438,9.916,1.642,4.13-.629,5.924-1.96,7.233-3.3a.437.437,0,0,1,.622.615c-1.447,1.447-3.342,2.893-7.725,3.551A19.992,19.992,0,0,1,73.356,126.268Z" transform="translate(-45.897 -89.862)" fill="#b7f5dd"/>
        <path id="Path_6885" data-name="Path 6885" d="M79.732,114.45a10.437,10.437,0,0,1-2.647-.354,7.45,7.45,0,0,1-5.012-3.841.441.441,0,0,1,.2-.593.434.434,0,0,1,.586.2A6.51,6.51,0,0,0,77.3,113.25a8.737,8.737,0,0,0,7.233-1.157.427.427,0,0,1,.608.123.434.434,0,0,1-.123.608A9.5,9.5,0,0,1,79.732,114.45Z" transform="translate(-47.666 -86.507)" fill="#b7f5dd"/>
        <path id="Path_6886" data-name="Path 6886" d="M85.153,140.292c-3.2-.3-7.233-1.2-10.669-6.51S69.942,117.4,73.1,110.73c2.083-4.39,6.242-8.412,9.244-7.067-1.338-1.251-3.812-.8-5.309.058-2.257,1.3-11.276,6.908-10.756,21.569s11.124,19.254,13.15,20.252A14.7,14.7,0,0,0,94.729,139a12,12,0,0,0,1.02-12.665h0C98.252,134.173,89.941,140.726,85.153,140.292Z" transform="translate(-46.071 -84.646)" opacity="0.1"/>
        <path id="Path_6887" data-name="Path 6887" d="M100,152.5s-3.776,4.159-3.8,8.152a3.8,3.8,0,1,0,7.6,0C103.772,156.659,100,152.5,100,152.5Z" transform="translate(-54.353 -98.373)" fill="#fafafa"/>
      </g>
    </g>
    <g id="freepik--speech-bubble--inject-90" transform="translate(184.454 55.2)">
      <g id="freepik--speech-bubble--inject-90-2" data-name="freepik--speech-bubble--inject-90" transform="translate(0 0)">
        <g id="freepik--speech-bubble--inject-90-3" data-name="freepik--speech-bubble--inject-90">
          <path id="Path_6888" data-name="Path 6888" d="M261.826,60.608,215.2,87.508a1.931,1.931,0,0,0-.882,1.519v29.323a1.924,1.924,0,0,0,.882,1.512l3.146,1.758a1.953,1.953,0,0,0,1.758,0l46.646-26.892a1.946,1.946,0,0,0,.875-1.519V63.878a1.924,1.924,0,0,0-.882-1.512L263.6,60.6a1.975,1.975,0,0,0-1.772.007Z" transform="translate(-207.037 -60.395)" fill="#b7f5dd"/>
          <path id="Path_6889" data-name="Path 6889" d="M221.11,122.2V92.875a1.946,1.946,0,0,1,.875-1.519l46.646-26.892c.485-.282.875-.051.875.506V94.293a1.946,1.946,0,0,1-.875,1.519l-46.646,26.871C221.5,122.986,221.11,122.755,221.11,122.2Z" transform="translate(-208.916 -61.487)" fill="#b7f5dd"/>
          <path id="Path_6890" data-name="Path 6890" d="M220.106,132.205a1.931,1.931,0,0,1-1.758,0l-3.146-1.772a1.9,1.9,0,0,1-.882-1.5V99.657a1.765,1.765,0,0,1,.282-.9l4.89,2.792a1.7,1.7,0,0,0-.26.861v29.323A.525.525,0,0,0,220.106,132.205Z" transform="translate(-207.037 -71.01)" opacity="0.2"/>
          <path id="Path_6891" data-name="Path 6891" d="M267.718,63.728c-.065-.441-.427-.6-.868-.347L220.219,90.274a1.823,1.823,0,0,0-.622.658l-4.9-2.792a1.729,1.729,0,0,1,.608-.622l46.624-26.907a1.975,1.975,0,0,1,1.758,0l3.146,1.765a1.931,1.931,0,0,1,.882,1.353Z" transform="translate(-207.142 -60.397)" fill="#fff" opacity="0.4"/>
          <path id="Path_6892" data-name="Path 6892" d="M211.534,114.38l-7.059,7.182a.781.781,0,0,0,.13,1.2c.145.1,4.89,2.814,4.89,2.814l6.951-8.369Z" transform="translate(-204.251 -75.332)" fill="#b7f5dd"/>
          <path id="Path_6893" data-name="Path 6893" d="M211.534,114.38l-7.059,7.182a.781.781,0,0,0,.13,1.2c.145.1,4.89,2.814,4.89,2.814l6.951-8.369Z" transform="translate(-204.251 -75.332)" opacity="0.1"/>
          <path id="Path_6894" data-name="Path 6894" d="M218.326,118.29l-7.059,7.182a.781.781,0,0,0,.665,1.316l6.394-.926C219.013,125.863,219.013,118.29,218.326,118.29Z" transform="translate(-206.132 -76.414)" fill="#b7f5dd"/>
        </g>
        <path id="Path_6895" data-name="Path 6895" d="M229,111.582a12.717,12.717,0,0,1,.34-2.474,10.975,10.975,0,0,1,.853-2.336,9.861,9.861,0,0,1,1.345-2.025,6.778,6.778,0,0,1,1.823-1.512,3.617,3.617,0,0,1,1.815-.586,1.982,1.982,0,0,1,1.345.47,2.965,2.965,0,0,1,.853,1.353,7.037,7.037,0,0,1,.34,2.076v3.826a11.63,11.63,0,0,1-.34,2.466,11.24,11.24,0,0,1-.853,2.351,9.31,9.31,0,0,1-1.345,2.025,7.19,7.19,0,0,1-1.815,1.5,3.8,3.8,0,0,1-1.823.6,1.982,1.982,0,0,1-1.345-.47,3.088,3.088,0,0,1-.853-1.374,7.493,7.493,0,0,1-.34-2.069c0-.579,0-1.2,0-1.881Zm6.134.174v-3.609a3.529,3.529,0,0,0-.145-.9,1.338,1.338,0,0,0-.34-.593.781.781,0,0,0-.535-.217,1.447,1.447,0,0,0-.723.239,3.2,3.2,0,0,0-.723.629,4.037,4.037,0,0,0-.535.839,4.918,4.918,0,0,0-.333.984,6.462,6.462,0,0,0-.152,1.07v3.617a2.437,2.437,0,0,0,.485,1.5c.282.311.723.3,1.295-.036a3,3,0,0,0,1.28-1.447,5.866,5.866,0,0,0,.434-2.061Z" transform="translate(-211.099 -72.086)" fill="#455a64"/>
        <path id="Path_6896" data-name="Path 6896" d="M250.272,104v1.656a9.4,9.4,0,0,1-.311,2.112,10.343,10.343,0,0,1-.767,2.025,8.578,8.578,0,0,1-1.179,1.743,6.011,6.011,0,0,1-1.548,1.28,3.291,3.291,0,0,1-1.541.506,1.815,1.815,0,0,1-1.186-.383,2.647,2.647,0,0,1-.767-1.136,5.317,5.317,0,0,1-.3-1.765c0-.21,0-.477,0-.817v-.839a8.983,8.983,0,0,1,.289-2.1,9.947,9.947,0,0,1,.781-2.025,8.679,8.679,0,0,1,1.186-1.765,6.011,6.011,0,0,1,1.541-1.287,3.2,3.2,0,0,1,1.548-.492,1.873,1.873,0,0,1,1.186.391,2.51,2.51,0,0,1,.767,1.136A5.714,5.714,0,0,1,250.272,104Zm-5.063,4.484a1.374,1.374,0,0,0,.391,1.056c.224.181.528.159.9-.058a2.351,2.351,0,0,0,.9-.984,3.689,3.689,0,0,0,.383-1.5c0-.231,0-.477,0-.723v-.723a1.447,1.447,0,0,0-.383-1.056.781.781,0,0,0-.9.058,2.336,2.336,0,0,0-.9.984,3.616,3.616,0,0,0-.391,1.5c0,.224,0,.47,0,.723s-.043.514-.029.716Z" transform="translate(-214.882 -71.55)" fill="#455a64"/>
        <path id="Path_6897" data-name="Path 6897" d="M259.377,105.278a2.424,2.424,0,0,1-.723.282,1.251,1.251,0,0,1-.528,0,.976.976,0,0,1-.376-.2,1.722,1.722,0,0,1-.253-.275v4.578a1.056,1.056,0,0,1-.116.477.759.759,0,0,1-.26.325l-1.765,1.013a.2.2,0,0,1-.26,0,.448.448,0,0,1-.116-.347V96.989a1.006,1.006,0,0,1,.116-.47.68.68,0,0,1,.26-.326l1.7-.948a.2.2,0,0,1,.268,0,.477.477,0,0,1,.108.347v.492l.275-.608a3.443,3.443,0,0,1,.362-.629,4.946,4.946,0,0,1,.528-.608,3.95,3.95,0,0,1,.781-.564,2.647,2.647,0,0,1,1.186-.4,1.309,1.309,0,0,1,.976.34,2.582,2.582,0,0,1,.68,1.143,6.964,6.964,0,0,1,.282,2.032v1.743a10.8,10.8,0,0,1-.282,2.358,9.308,9.308,0,0,1-.68,1.931,6.3,6.3,0,0,1-.976,1.447A4.969,4.969,0,0,1,259.377,105.278Zm.629-5.569a8.408,8.408,0,0,0,0-1.208,2.126,2.126,0,0,0-.325-1.121q-.282-.405-.933,0a1.794,1.794,0,0,0-.535.456,3.081,3.081,0,0,0-.369.615,4.426,4.426,0,0,0-.231.68,4.663,4.663,0,0,0-.109.723v.767a7.22,7.22,0,0,0,0,.723,2.69,2.69,0,0,0,.109.564,1.251,1.251,0,0,0,.231.412.564.564,0,0,0,.369.181.948.948,0,0,0,.535-.152,2.17,2.17,0,0,0,.933-1.1,4.874,4.874,0,0,0,.326-1.541Z" transform="translate(-218.287 -69.493)" fill="#455a64"/>
        <path id="Path_6898" data-name="Path 6898" d="M271.206,95.052q0-.239-.108-.3a.47.47,0,0,0-.354,0,5.419,5.419,0,0,0-.665.21c-.275.1-.615.21-1.027.333a1.541,1.541,0,0,1-1.635-.26A2.835,2.835,0,0,1,266.845,93a5.012,5.012,0,0,1,.239-1.5,6.713,6.713,0,0,1,.665-1.447,6.937,6.937,0,0,1,1.027-1.338,6.22,6.22,0,0,1,1.338-1.042,3.768,3.768,0,0,1,1.338-.506,2.17,2.17,0,0,1,1.063.08,1.345,1.345,0,0,1,.723.557,1.786,1.786,0,0,1,.282.919.868.868,0,0,1-.1.47.774.774,0,0,1-.275.333l-1.664.955c-.1.065-.181.072-.239.036l-.217-.108a.658.658,0,0,0-.333-.051,1.367,1.367,0,0,0-.564.224,1.809,1.809,0,0,0-.535.448.89.89,0,0,0-.217.586.579.579,0,0,0,.065.325q.072.087.282.043a4.338,4.338,0,0,0,.586-.181l.991-.333a1.635,1.635,0,0,1,1.852.253,2.893,2.893,0,0,1,.579,1.953,5.288,5.288,0,0,1-.231,1.5,6.863,6.863,0,0,1-.723,1.526,7.56,7.56,0,0,1-1.121,1.447,7.334,7.334,0,0,1-1.49,1.143,4.1,4.1,0,0,1-1.447.557,2,2,0,0,1-1.07-.123,1.5,1.5,0,0,1-.665-.608,1.989,1.989,0,0,1-.253-.9.868.868,0,0,1,.1-.47.817.817,0,0,1,.275-.333l1.729-1c.108-.058.181-.065.224,0a1.329,1.329,0,0,0,.181.152.6.6,0,0,0,.325.072,1.54,1.54,0,0,0,.629-.246,2.893,2.893,0,0,0,.723-.593,1.056,1.056,0,0,0,.289-.752Z" transform="translate(-221.538 -67.794)" fill="#455a64"/>
        <path id="Path_6899" data-name="Path 6899" d="M280.666,86.794a1.049,1.049,0,0,1-.116.47.68.68,0,0,1-.26.325L278.525,88.6a.188.188,0,0,1-.26,0,.449.449,0,0,1-.116-.347v-9.28a1.056,1.056,0,0,1,.116-.477.68.68,0,0,1,.26-.325l1.765-1.013a.188.188,0,0,1,.26,0,.449.449,0,0,1,.116.347Zm0,4.622a1,1,0,0,1-.116.47.68.68,0,0,1-.26.325l-1.765,1.02a.2.2,0,0,1-.26,0,.427.427,0,0,1-.116-.34v-2.17a1.049,1.049,0,0,1,.116-.47.68.68,0,0,1,.26-.325l1.765-1.02a.2.2,0,0,1,.26,0,.449.449,0,0,1,.116.347Z" transform="translate(-224.698 -65.019)" fill="#455a64"/>
      </g>
    </g>
  </g>
</svg>
